<svg aria-hidden="true" style="position: absolute; width: 0; height: 0; overflow: hidden;" version="1.1" xmlns="http://www.w3.org/2000/svg" xmlns:xlink="http://www.w3.org/1999/xlink">
    <defs>
        <symbol id="icon-arrow-down" viewBox="0 0 32 32">
            <path d="M9.131 10.869l-2.263 2.263 9.131 9.131 9.131-9.131-2.262-2.263-6.869 6.869z"></path>
        </symbol>
        <symbol id="icon-arrow-left" viewBox="0 0 32 32">
            <path d="M5.334 15c-0.552 0-1 0.448-1 1v0c0 0.552 0.448 1 1 1v0h21.332c0.552 0 1-0.448 1-1v0c0-0.552-0.448-1-1-1v0z"></path>
            <path d="M13.334 7c-0.276 0-0.526 0.112-0.707 0.293l-8 8c-0.181 0.181-0.293 0.431-0.293 0.707s0.112 0.526 0.293 0.707l8 8c0.181 0.181 0.431 0.293 0.707 0.293s0.526-0.112 0.707-0.293v0c0.181-0.181 0.293-0.431 0.293-0.707s-0.112-0.526-0.293-0.707l-7.293-7.293 7.293-7.293c0.181-0.181 0.293-0.431 0.293-0.707s-0.112-0.526-0.293-0.707v0c-0.181-0.181-0.431-0.293-0.707-0.293v0z"></path>
        </symbol>
        <symbol id="icon-arrow-right" viewBox="0 0 32 32">
            <path d="M5.334 15c-0.552 0-1 0.448-1 1v0c0 0.552 0.448 1 1 1v0h21.332c0.552 0 1-0.448 1-1v0c0-0.552-0.448-1-1-1v0z"></path>
            <path d="M17.959 7.293c-0.181 0.181-0.293 0.431-0.293 0.707s0.112 0.526 0.293 0.707l7.293 7.293-7.293 7.293c-0.181 0.181-0.293 0.431-0.293 0.707s0.112 0.526 0.293 0.707v0c0.181 0.181 0.431 0.293 0.707 0.293s0.526-0.112 0.707-0.293l8-8c0.181-0.181 0.293-0.431 0.293-0.707s-0.112-0.526-0.293-0.707l-8-8c-0.181-0.181-0.431-0.293-0.707-0.293s-0.526 0.112-0.707 0.293v0z"></path>
        </symbol>
        <symbol id="icon-arrow-up" viewBox="0 0 32 32">
            <path d="M16 9.738l-9.131 9.131 2.263 2.262 6.869-6.869 6.869 6.869 2.262-2.262z"></path>
        </symbol>
        <symbol id="icon-brush" viewBox="0 0 32 32">
            <path d="M12 13.63c-0.368 0-0.701 0.149-0.943 0.391v0c-0.241 0.241-0.39 0.575-0.39 0.943s0.149 0.701 0.39 0.943l5.036 5.036c0.241 0.241 0.575 0.39 0.943 0.39s0.701-0.149 0.943-0.39v0c0.241-0.241 0.39-0.575 0.39-0.943s-0.149-0.701-0.39-0.943l-5.036-5.036c-0.241-0.241-0.575-0.391-0.943-0.391v0z"></path>
            <path d="M7.333 18.674c-1.538 0-3.076 0.584-4.242 1.75-1.368 1.368-1.303 3.198-1.245 4.661s0.099 2.728-0.367 3.638c-0.093 0.177-0.147 0.387-0.147 0.609 0 0.736 0.597 1.333 1.333 1.333 0 0 0.001 0 0.001 0h-0c1.257 0 2.83 0.12 4.406-0.005s3.252-0.502 4.503-1.753c2.332-2.332 2.332-6.152 0-8.484-1.166-1.166-2.704-1.75-4.242-1.75zM7.333 21.326c0.85 0 1.7 0.328 2.357 0.984 1.313 1.313 1.313 3.401 0 4.714-0.572 0.572-1.546 0.879-2.831 0.982-0.765 0.061-1.642 0.018-2.495-0.003 0.165-1.089 0.181-2.141 0.146-3.021-0.056-1.398 0.012-2.218 0.466-2.672 0.656-0.656 1.506-0.984 2.357-0.984z"></path>
            <path d="M26.003 1.815c-1.070-0.021-2.147 0.352-2.984 1.128l-13.156 12.182c-0.68 0.63-1.109 0.985-1.461 1.581-0.712 1.206-0.741 2.703-0.076 3.935 0.329 0.609 0.743 0.98 1.398 1.635s1.026 1.070 1.635 1.398c1.232 0.665 2.729 0.637 3.935-0.076 0.596-0.352 0.951-0.781 1.581-1.461l12.182-13.156c1.55-1.674 1.499-4.311-0.115-5.924-0.807-0.807-1.87-1.222-2.94-1.242zM25.953 4.466c0.399 0.008 0.794 0.167 1.104 0.477 0.62 0.62 0.637 1.583 0.042 2.227l-12.182 13.159c-0.63 0.68-0.904 0.93-0.979 0.974-0.404 0.239-0.899 0.249-1.313 0.026-0.077-0.042-0.36-0.282-1.016-0.938s-0.896-0.939-0.938-1.016c-0.223-0.413-0.213-0.908 0.026-1.313 0.044-0.075 0.294-0.35 0.974-0.979l13.159-12.182c0.322-0.298 0.724-0.443 1.122-0.435z"></path>
        </symbol>
        <symbol id="icon-burger-menu" viewBox="0 0 32 32">
            <path d="M4 10.19c-0.631 0-1.143 0.512-1.143 1.143v0c0 0.631 0.512 1.143 1.143 1.143h24c0.631 0 1.143-0.512 1.143-1.143v0c0-0.631-0.512-1.143-1.143-1.143v0zM4 19.525c-0.631 0-1.143 0.512-1.143 1.143v0c0 0.631 0.512 1.143 1.143 1.143v0h24c0.631 0 1.143-0.512 1.143-1.143v0c0-0.631-0.512-1.143-1.143-1.143v0z"></path>
        </symbol>
        <symbol id="icon-close-x" viewBox="0 0 32 32">
            <path d="M23.192 7.192l-16 16c-0.446 0.446-0.446 1.17 0 1.616s1.17 0.446 1.616 0l16-16c0.446-0.446 0.446-1.17 0-1.616s-1.17-0.446-1.616 0z"></path>
            <path d="M8.808 7.192l16 16c0.446 0.446 0.446 1.17 0 1.616s-1.17 0.446-1.616 0l-16-16c-0.446-0.446-0.446-1.17 0-1.616s1.17-0.446 1.616 0z"></path>
        </symbol>
        <symbol id="icon-hourglass" viewBox="0 0 32 32">
            <path d="M7.784 1.333c-1.337 0-2.451 1.113-2.451 2.451 0 3.907 1.553 7.654 4.315 10.417l1.625 1.625c0.161 0.161 0.207 0.218 0.174 0.174 0.032-0.043-0.013 0.013-0.174 0.174l-1.625 1.625c-2.763 2.762-4.315 6.51-4.315 10.417 0 1.337 1.113 2.451 2.451 2.451h16.432c1.337 0 2.451-1.113 2.451-2.451 0-3.907-1.553-7.654-4.315-10.417l-1.625-1.625c-0.161-0.161-0.207-0.219-0.174-0.174-0.033 0.044 0.013-0.013 0.174-0.174l1.625-1.625c2.762-2.762 4.315-6.51 4.315-10.417 0-1.337-1.113-2.451-2.451-2.451zM8.044 4h15.911c-0.058 3.119-1.279 6.105-3.49 8.315l-1.625 1.625c-0.161 0.161-0.279 0.267-0.427 0.466-0.702 0.941-0.702 2.246 0 3.188 0.148 0.199 0.266 0.305 0.427 0.466l1.625 1.625c2.21 2.21 3.432 5.196 3.49 8.315h-15.911c0.058-3.119 1.28-6.105 3.49-8.315l1.625-1.625c0.162-0.162 0.279-0.268 0.427-0.466 0.702-0.941 0.702-2.246 0-3.188-0.148-0.198-0.265-0.305-0.427-0.466l-1.625-1.625c-2.21-2.21-3.432-5.196-3.49-8.315z"></path>
        </symbol>
        <symbol id="icon-message" viewBox="0 0 32 32">
            <path d="M18.737 1.333c-6.646 0-12.070 5.384-12.070 12 0 0.266 0.043 0.522 0.060 0.784-2.962 1.361-5.042 4.381-5.042 7.883 0 0.956 0.153 1.879 0.435 2.742 0.101 0.309 0.134 0.469 0.117 0.362 0.003-0.057-0.004 0.016-0.057 0.258l-0.815 3.682c-0.020 0.087-0.032 0.186-0.032 0.288 0 0.736 0.597 1.333 1.333 1.333 0.063 0 0.126-0.004 0.187-0.013l-0.007 0.001 3.995-0.544c0.218-0.030 0.283-0.031 0.232-0.031-0.099-0.020 0.048 0.017 0.326 0.115 0.871 0.307 1.807 0.474 2.776 0.474 3.547 0 6.57-2.243 7.841-5.388 0.242 0.014 0.476 0.055 0.721 0.055 1.494 0 2.931-0.272 4.255-0.768 0.253-0.095 0.36-0.123 0.284-0.107v0.003c-0.048 0 0.010 0.001 0.232 0.034l4.247 0.622c0.47 0.069 0.886 0.241 1.599-0.065 0.455-0.196 0.823-0.555 1.029-1.005 0.323-0.705 0.16-1.127 0.102-1.599l-0.536-4.359c-0.026-0.215-0.025-0.272-0.026-0.227-0.017 0.076 0.011-0.029 0.104-0.273 0.505-1.323 0.781-2.761 0.781-4.255 0-6.616-5.425-12-12.070-12zM18.737 4c5.214 0 9.404 4.168 9.404 9.333 0 1.167-0.215 2.279-0.607 3.305-0.093 0.244-0.157 0.382-0.216 0.648-0.034 0.152-0.059 0.356-0.063 0.513-0.006 0.241 0.020 0.399 0.047 0.615l0.495 4.010-3.901-0.57c-0.222-0.033-0.385-0.062-0.635-0.060-0.162 0.001-0.375 0.021-0.534 0.055-0.274 0.058-0.417 0.124-0.669 0.219-1.031 0.386-2.148 0.599-3.32 0.599-0.068 0-0.133-0.014-0.201-0.016 0.018-0.226 0.13-0.421 0.13-0.651 0-4.753-3.801-8.667-8.492-8.667-0.294 0-0.542 0.142-0.828 0.172-0.001-0.058-0.013-0.113-0.013-0.172 0-5.166 4.19-9.333 9.404-9.333zM10.174 16c3.215 0 5.826 2.653 5.826 6s-2.611 6-5.826 6c-0.664 0-1.296-0.114-1.888-0.323-0.278-0.098-0.407-0.159-0.693-0.216-0.142-0.028-0.357-0.049-0.503-0.049-0.242-0.002-0.394 0.025-0.612 0.055l-2.096 0.286 0.401-1.813c0.053-0.241 0.099-0.409 0.115-0.68 0.009-0.164-0.001-0.405-0.026-0.568-0.050-0.318-0.118-0.469-0.219-0.779-0.196-0.6-0.302-1.241-0.302-1.914 0-3.347 2.608-6 5.823-6z"></path>
        </symbol>
        <symbol id="icon-user" viewBox="0 0 32 32">
            <path d="M12.667 19.333c-1.861 0-2.888-0.031-3.935 0.286-2.129 0.646-3.799 2.316-4.445 4.445-0.318 1.047-0.286 2.074-0.286 3.935 0 0.736 0.597 1.333 1.333 1.333v0c0.736 0 1.333-0.597 1.333-1.333v0c0-1.861 0.030-2.695 0.172-3.161 0.388-1.28 1.387-2.278 2.667-2.667 0.467-0.142 1.301-0.172 3.161-0.172h6.667c1.861 0 2.695 0.030 3.161 0.172 1.28 0.388 2.278 1.387 2.667 2.667 0.142 0.467 0.172 1.301 0.172 3.161 0 0.736 0.597 1.333 1.333 1.333v0c0.736 0 1.333-0.597 1.333-1.333v0c0-1.861 0.031-2.888-0.286-3.935-0.646-2.129-2.316-3.799-4.445-4.445-1.047-0.318-2.074-0.286-3.935-0.286z"></path>
            <path d="M16 2.667c-4.034 0-7.333 3.299-7.333 7.333s3.299 7.333 7.333 7.333c4.034 0 7.333-3.299 7.333-7.333s-3.299-7.333-7.333-7.333zM16 5.333c2.593 0 4.667 2.074 4.667 4.667s-2.073 4.667-4.667 4.667c-2.593 0-4.667-2.074-4.667-4.667s2.074-4.667 4.667-4.667z"></path>
        </symbol>
    </defs>
</svg>